<?xml version="1.0" encoding="UTF-8"?>
<svg xmlns="http://www.w3.org/2000/svg" xmlns:xlink="http://www.w3.org/1999/xlink" width="3000" height="3000" viewBox="0 0 3000 3000">
<defs>
<clipPath id="clip-0">
<path clip-rule="nonzero" d="M 997 839 L 2003 839 L 2003 1845 L 997 1845 Z M 997 839 "/>
</clipPath>
<clipPath id="clip-1">
<path clip-rule="nonzero" d="M 1503.191406 839.609375 C 1410.898438 840.109375 1318.371094 904.171875 1317.691406 1029.601562 L 1317.011719 1156.679688 L 1190.199219 1155.378906 C 931.800781 1152.71875 934.941406 1522.238281 1186 1524.828125 L 1265.488281 1525.648438 L 1345.488281 1317.050781 C 1348.921875 1308.089844 1357.589844 1302.230469 1367.191406 1302.378906 C 1377.460938 1302.539062 1386.359375 1309.53125 1388.949219 1319.46875 L 1500.96875 1749.488281 L 1554.300781 1544.660156 C 1556.949219 1534.46875 1566.21875 1527.421875 1576.75 1527.570312 L 1683.570312 1529.101562 L 1683.570312 1529.050781 L 1810.820312 1529.738281 C 1935.96875 1530.410156 1999.300781 1444.058594 2002.800781 1354.679688 C 2006.519531 1259.539062 1942.441406 1160.960938 1812.960938 1160.269531 L 1686.480469 1159.589844 L 1687.160156 1031.738281 C 1687.839844 906.589844 1601.488281 843.261719 1512.109375 839.769531 C 1509.140625 839.648438 1506.160156 839.601562 1503.191406 839.609375 Z M 1362.671875 1399.921875 L 1314.101562 1526.570312 L 1312.800781 1652.359375 C 1311.558594 1773.609375 1392.25 1837.269531 1478.539062 1844.761719 Z M 1594.019531 1573.539062 L 1523.710938 1843.558594 C 1605.929688 1832.039062 1681.101562 1769.308594 1682.261719 1656.558594 L 1683.101562 1574.808594 L 1594.019531 1573.539062 "/>
</clipPath>
<linearGradient id="linear-pattern-0" gradientUnits="userSpaceOnUse" x1="-0.697035" y1="0" x2="1.372932" y2="0" gradientTransform="matrix(500.893, -503.791, -503.791, -500.893, 1314.1, 1526.57)">
<stop offset="0" stop-color="rgb(33.332825%, 86.665344%, 100%)" stop-opacity="1"/>
<stop offset="0.25" stop-color="rgb(33.332825%, 86.665344%, 100%)" stop-opacity="1"/>
<stop offset="0.3125" stop-color="rgb(33.332825%, 86.665344%, 100%)" stop-opacity="1"/>
<stop offset="0.34375" stop-color="rgb(33.360291%, 86.57074%, 99.873352%)" stop-opacity="1"/>
<stop offset="0.351562" stop-color="rgb(33.421326%, 86.372375%, 99.607849%)" stop-opacity="1"/>
<stop offset="0.359375" stop-color="rgb(33.483887%, 86.16333%, 99.330139%)" stop-opacity="1"/>
<stop offset="0.367188" stop-color="rgb(33.547974%, 85.954285%, 99.050903%)" stop-opacity="1"/>
<stop offset="0.375" stop-color="rgb(33.610535%, 85.745239%, 98.771667%)" stop-opacity="1"/>
<stop offset="0.382812" stop-color="rgb(33.674622%, 85.536194%, 98.492432%)" stop-opacity="1"/>
<stop offset="0.390625" stop-color="rgb(33.737183%, 85.327148%, 98.213196%)" stop-opacity="1"/>
<stop offset="0.398438" stop-color="rgb(33.80127%, 85.116577%, 97.93396%)" stop-opacity="1"/>
<stop offset="0.40625" stop-color="rgb(33.865356%, 84.907532%, 97.654724%)" stop-opacity="1"/>
<stop offset="0.414062" stop-color="rgb(33.927917%, 84.698486%, 97.377014%)" stop-opacity="1"/>
<stop offset="0.421875" stop-color="rgb(33.992004%, 84.489441%, 97.097778%)" stop-opacity="1"/>
<stop offset="0.429687" stop-color="rgb(34.054565%, 84.280396%, 96.818542%)" stop-opacity="1"/>
<stop offset="0.4375" stop-color="rgb(34.118652%, 84.07135%, 96.539307%)" stop-opacity="1"/>
<stop offset="0.445312" stop-color="rgb(34.181213%, 83.860779%, 96.260071%)" stop-opacity="1"/>
<stop offset="0.453125" stop-color="rgb(34.2453%, 83.651733%, 95.980835%)" stop-opacity="1"/>
<stop offset="0.460937" stop-color="rgb(34.309387%, 83.442688%, 95.701599%)" stop-opacity="1"/>
<stop offset="0.46875" stop-color="rgb(34.371948%, 83.233643%, 95.422363%)" stop-opacity="1"/>
<stop offset="0.476562" stop-color="rgb(34.436035%, 83.024597%, 95.144653%)" stop-opacity="1"/>
<stop offset="0.484375" stop-color="rgb(34.498596%, 82.815552%, 94.865417%)" stop-opacity="1"/>
<stop offset="0.492188" stop-color="rgb(34.562683%, 82.606506%, 94.586182%)" stop-opacity="1"/>
<stop offset="0.5" stop-color="rgb(34.625244%, 82.395935%, 94.306946%)" stop-opacity="1"/>
<stop offset="0.507812" stop-color="rgb(34.689331%, 82.18689%, 94.02771%)" stop-opacity="1"/>
<stop offset="0.515625" stop-color="rgb(34.751892%, 81.977844%, 93.748474%)" stop-opacity="1"/>
<stop offset="0.523438" stop-color="rgb(34.815979%, 81.768799%, 93.469238%)" stop-opacity="1"/>
<stop offset="0.53125" stop-color="rgb(34.880066%, 81.559753%, 93.190002%)" stop-opacity="1"/>
<stop offset="0.539062" stop-color="rgb(34.942627%, 81.350708%, 92.912292%)" stop-opacity="1"/>
<stop offset="0.546875" stop-color="rgb(35.006714%, 81.140137%, 92.633057%)" stop-opacity="1"/>
<stop offset="0.554688" stop-color="rgb(35.069275%, 80.931091%, 92.353821%)" stop-opacity="1"/>
<stop offset="0.5625" stop-color="rgb(35.133362%, 80.722046%, 92.074585%)" stop-opacity="1"/>
<stop offset="0.570312" stop-color="rgb(35.195923%, 80.513%, 91.795349%)" stop-opacity="1"/>
<stop offset="0.578125" stop-color="rgb(35.26001%, 80.303955%, 91.516113%)" stop-opacity="1"/>
<stop offset="0.585937" stop-color="rgb(35.324097%, 80.09491%, 91.236877%)" stop-opacity="1"/>
<stop offset="0.59375" stop-color="rgb(35.386658%, 79.885864%, 90.957642%)" stop-opacity="1"/>
<stop offset="0.601562" stop-color="rgb(35.450745%, 79.675293%, 90.679932%)" stop-opacity="1"/>
<stop offset="0.609375" stop-color="rgb(35.513306%, 79.466248%, 90.400696%)" stop-opacity="1"/>
<stop offset="0.617188" stop-color="rgb(35.577393%, 79.257202%, 90.12146%)" stop-opacity="1"/>
<stop offset="0.625" stop-color="rgb(35.639954%, 79.048157%, 89.842224%)" stop-opacity="1"/>
<stop offset="0.632812" stop-color="rgb(35.704041%, 78.839111%, 89.562988%)" stop-opacity="1"/>
<stop offset="0.640625" stop-color="rgb(35.766602%, 78.630066%, 89.283752%)" stop-opacity="1"/>
<stop offset="0.648438" stop-color="rgb(35.830688%, 78.419495%, 89.004517%)" stop-opacity="1"/>
<stop offset="0.65625" stop-color="rgb(35.894775%, 78.210449%, 88.725281%)" stop-opacity="1"/>
<stop offset="0.664063" stop-color="rgb(35.957336%, 78.001404%, 88.447571%)" stop-opacity="1"/>
<stop offset="0.671875" stop-color="rgb(36.021423%, 77.792358%, 88.168335%)" stop-opacity="1"/>
<stop offset="0.679687" stop-color="rgb(36.083984%, 77.583313%, 87.889099%)" stop-opacity="1"/>
<stop offset="0.6875" stop-color="rgb(36.148071%, 77.374268%, 87.609863%)" stop-opacity="1"/>
<stop offset="0.695312" stop-color="rgb(36.210632%, 77.165222%, 87.330627%)" stop-opacity="1"/>
<stop offset="0.703125" stop-color="rgb(36.274719%, 76.954651%, 87.051392%)" stop-opacity="1"/>
<stop offset="0.710938" stop-color="rgb(36.338806%, 76.745605%, 86.772156%)" stop-opacity="1"/>
<stop offset="0.71875" stop-color="rgb(36.401367%, 76.53656%, 86.494446%)" stop-opacity="1"/>
<stop offset="0.726562" stop-color="rgb(36.465454%, 76.327515%, 86.21521%)" stop-opacity="1"/>
<stop offset="0.734375" stop-color="rgb(36.528015%, 76.118469%, 85.935974%)" stop-opacity="1"/>
<stop offset="0.742188" stop-color="rgb(36.592102%, 75.909424%, 85.656738%)" stop-opacity="1"/>
<stop offset="0.75" stop-color="rgb(36.654663%, 75.698853%, 85.377502%)" stop-opacity="1"/>
<stop offset="0.757812" stop-color="rgb(36.71875%, 75.489807%, 85.098267%)" stop-opacity="1"/>
<stop offset="0.765625" stop-color="rgb(36.781311%, 75.280762%, 84.819031%)" stop-opacity="1"/>
<stop offset="0.773437" stop-color="rgb(36.845398%, 75.071716%, 84.539795%)" stop-opacity="1"/>
<stop offset="0.78125" stop-color="rgb(36.909485%, 74.862671%, 84.262085%)" stop-opacity="1"/>
<stop offset="0.789062" stop-color="rgb(36.972046%, 74.653625%, 83.982849%)" stop-opacity="1"/>
<stop offset="0.796875" stop-color="rgb(37.036133%, 74.44458%, 83.703613%)" stop-opacity="1"/>
<stop offset="0.804688" stop-color="rgb(37.098694%, 74.234009%, 83.424377%)" stop-opacity="1"/>
<stop offset="0.8125" stop-color="rgb(37.162781%, 74.024963%, 83.145142%)" stop-opacity="1"/>
<stop offset="0.875" stop-color="rgb(37.223816%, 73.822021%, 82.875061%)" stop-opacity="1"/>
<stop offset="1" stop-color="rgb(37.254333%, 73.724365%, 82.743835%)" stop-opacity="1"/>
</linearGradient>
</defs>
<rect x="-300" y="-300" width="3600" height="3600" fill="rgb(100%, 100%, 100%)" fill-opacity="1"/>
<g clip-path="url(#clip-0)">
<g clip-path="url(#clip-1)">
<path fill-rule="nonzero" fill="url(#linear-pattern-0)" d="M 1472.257812 2382.113281 L 429.226562 1345.078125 L 1466.058594 302.25 L 2509.089844 1339.28125 Z M 1472.257812 2382.113281 "/>
</g>
</g>
<path fill-rule="nonzero" fill="rgb(19.993591%, 19.993591%, 19.993591%)" fill-opacity="1" d="M 1009.328125 2158.257812 L 1009.328125 2033.332031 L 1022.878906 2033.332031 L 1022.878906 2084.632812 L 1076.140625 2084.632812 L 1076.140625 2033.332031 L 1089.691406 2033.332031 L 1089.691406 2158.257812 L 1076.140625 2158.257812 L 1076.140625 2099.375 L 1022.878906 2099.375 L 1022.878906 2158.257812 L 1009.328125 2158.257812 "/>
<path fill-rule="nonzero" fill="rgb(19.993591%, 19.993591%, 19.993591%)" fill-opacity="1" d="M 1117.628906 2158.257812 L 1117.628906 2033.332031 L 1191.679688 2033.332031 L 1191.679688 2048.074219 L 1131.179688 2048.074219 L 1131.179688 2086.335938 L 1187.851562 2086.335938 L 1187.851562 2100.992188 L 1131.179688 2100.992188 L 1131.179688 2143.515625 L 1194.070312 2143.515625 L 1194.070312 2158.257812 L 1117.628906 2158.257812 "/>
<path fill-rule="nonzero" fill="rgb(19.993591%, 19.993591%, 19.993591%)" fill-opacity="1" d="M 1206.238281 2158.257812 L 1245.609375 2033.332031 L 1260.179688 2033.332031 L 1302.109375 2158.257812 L 1286.601562 2158.257812 L 1274.671875 2120.421875 L 1231.890625 2120.421875 L 1220.640625 2158.257812 Z M 1235.808594 2106.960938 L 1270.488281 2106.960938 L 1259.839844 2072.363281 C 1254.898438 2056.425781 1254.898438 2056.425781 1252.601562 2046.457031 C 1250.640625 2058.472656 1250.640625 2058.472656 1247.058594 2070.316406 L 1235.808594 2106.960938 "/>
<path fill-rule="nonzero" fill="rgb(19.993591%, 19.993591%, 19.993591%)" fill-opacity="1" d="M 1316.75 2158.257812 L 1316.75 2033.332031 L 1330.300781 2033.332031 L 1330.300781 2143.515625 L 1380.738281 2143.515625 L 1380.738281 2158.257812 L 1316.75 2158.257812 "/>
<path fill-rule="nonzero" fill="rgb(19.993591%, 19.993591%, 19.993591%)" fill-opacity="1" d="M 1417.929688 2158.257812 L 1417.929688 2048.074219 L 1384.179688 2048.074219 L 1384.179688 2033.332031 L 1465.390625 2033.332031 L 1465.390625 2048.074219 L 1431.480469 2048.074219 L 1431.480469 2158.257812 L 1417.929688 2158.257812 "/>
<path fill-rule="nonzero" fill="rgb(19.993591%, 19.993591%, 19.993591%)" fill-opacity="1" d="M 1484 2158.257812 L 1484 2033.332031 L 1497.550781 2033.332031 L 1497.550781 2084.632812 L 1550.808594 2084.632812 L 1550.808594 2033.332031 L 1564.359375 2033.332031 L 1564.359375 2158.257812 L 1550.808594 2158.257812 L 1550.808594 2099.375 L 1497.550781 2099.375 L 1497.550781 2158.257812 L 1484 2158.257812 "/>
<path fill-rule="nonzero" fill="rgb(19.993591%, 19.993591%, 19.993591%)" fill-opacity="1" d="M 1654.449219 2112.328125 L 1674.480469 2120.082031 C 1669.789062 2141.046875 1669.789062 2141.046875 1658.878906 2150.761719 C 1647.96875 2160.390625 1647.96875 2160.390625 1632.039062 2160.390625 C 1612.011719 2160.390625 1612.011719 2160.390625 1599.570312 2144.964844 C 1585.25 2127.15625 1585.25 2127.15625 1585.25 2096.902344 C 1585.25 2064.949219 1585.25 2064.949219 1599.660156 2046.882812 C 1612.179688 2031.203125 1612.179688 2031.203125 1633.320312 2031.203125 C 1650.53125 2031.203125 1650.53125 2031.203125 1662.121094 2042.960938 C 1670.378906 2051.3125 1670.378906 2051.3125 1674.21875 2067.761719 L 1653.769531 2073.726562 C 1651.808594 2063.585938 1651.808594 2063.585938 1645.929688 2058.214844 C 1640.128906 2052.761719 1640.128906 2052.761719 1632.210938 2052.761719 C 1620.871094 2052.761719 1620.871094 2052.761719 1613.71875 2062.648438 C 1606.558594 2072.53125 1606.558594 2072.53125 1606.558594 2095.285156 C 1606.558594 2118.890625 1606.558594 2118.890625 1613.550781 2128.859375 C 1620.53125 2138.828125 1620.53125 2138.828125 1631.699219 2138.828125 C 1639.878906 2138.828125 1639.878906 2138.828125 1645.839844 2132.523438 C 1651.808594 2126.132812 1651.808594 2126.132812 1654.449219 2112.328125 "/>
<path fill-rule="nonzero" fill="rgb(19.993591%, 19.993591%, 19.993591%)" fill-opacity="1" d="M 1789.160156 2158.257812 L 1766.660156 2158.257812 L 1757.71875 2129.882812 L 1716.808594 2129.882812 L 1708.378906 2158.257812 L 1686.390625 2158.257812 L 1726.269531 2033.332031 L 1748.171875 2033.332031 Z M 1751.070312 2108.835938 L 1737.011719 2062.476562 L 1723.121094 2108.835938 Z M 1751.070312 2108.835938 "/>
<path fill-rule="nonzero" fill="rgb(19.993591%, 19.993591%, 19.993591%)" fill-opacity="1" d="M 1804.828125 2158.257812 L 1804.828125 2033.332031 L 1848.371094 2033.332031 C 1865.070312 2033.332031 1865.070312 2033.332031 1872.230469 2036.742188 C 1879.390625 2040.066406 1879.390625 2040.066406 1883.988281 2048.414062 C 1888.589844 2056.683594 1888.589844 2056.683594 1888.589844 2068.269531 C 1888.589844 2082.929688 1888.589844 2082.929688 1881.519531 2091.875 C 1874.53125 2100.824219 1874.53125 2100.824219 1861.578125 2103.125 C 1868.230469 2107.894531 1868.230469 2107.894531 1872.570312 2113.605469 C 1876.921875 2119.230469 1876.921875 2119.230469 1884.421875 2133.886719 L 1896.859375 2158.257812 L 1872.230469 2158.257812 L 1857.230469 2131.074219 C 1849.140625 2116.332031 1849.140625 2116.332031 1846.238281 2112.667969 C 1843.339844 2108.917969 1843.339844 2108.917969 1840.109375 2107.554688 C 1836.871094 2106.105469 1836.871094 2106.105469 1829.710938 2106.105469 L 1825.449219 2106.105469 L 1825.449219 2158.257812 Z M 1825.449219 2086.164062 L 1840.789062 2086.164062 C 1854.851562 2086.164062 1854.851562 2086.164062 1858.679688 2084.972656 C 1862.519531 2083.695312 1862.519531 2083.695312 1864.898438 2079.945312 C 1867.289062 2076.195312 1867.289062 2076.195312 1867.289062 2069.976562 C 1867.289062 2064.011719 1867.289062 2064.011719 1864.898438 2060.433594 C 1862.519531 2056.765625 1862.519531 2056.765625 1858.429688 2055.402344 C 1855.53125 2054.464844 1855.53125 2054.464844 1841.640625 2054.464844 L 1825.449219 2054.464844 L 1825.449219 2086.164062 "/>
<path fill-rule="nonzero" fill="rgb(19.993591%, 19.993591%, 19.993591%)" fill-opacity="1" d="M 1912.78125 2158.257812 L 1912.78125 2033.332031 L 1988.789062 2033.332031 L 1988.789062 2054.464844 L 1933.398438 2054.464844 L 1933.398438 2082.160156 L 1984.871094 2082.160156 L 1984.871094 2103.210938 L 1933.398438 2103.210938 L 1933.398438 2137.210938 L 1990.671875 2137.210938 L 1990.671875 2158.257812 L 1912.78125 2158.257812 "/>
</svg>
